<?xml version="1.0" encoding="utf-8"?>
<svg xmlns="http://www.w3.org/2000/svg" viewBox="380.3621 315.2559 464.1245 352.0774" width="464.125px" height="352.077px" preserveAspectRatio="none"><path style="fill:#050505; stroke:none;" d="M 631.596 353.986 C 639.663 354.053 647.506 355.981 655.596 355.986 C 655.595 361.714 655.039 367.296 654.43 372.986 C 654.095 376.116 653.006 379.716 653.915 382.838 C 655.083 386.85 664.134 387.455 666.568 384.383 C 669.306 380.926 668.368 371.305 668.685 366.986 C 669.689 353.292 673.118 338.712 672.498 325.005 C 672.282 320.224 663.983 316.421 660.623 320.59 C 659.317 322.211 659.444 325.027 659.172 326.986 C 658.354 332.894 657.645 339.021 657.596 344.986 C 649.64 343.092 640.761 342.63 632.596 341.986 C 633.838 336.772 634.117 331.309 634.751 325.986 C 635.031 323.635 636.024 320.582 634.978 318.304 C 632.637 313.205 623.247 315.005 622.078 320.005 C 618.996 333.196 619.005 347.556 617.017 360.986 C 616.321 365.692 613.574 374.176 615.289 378.707 C 616.79 382.673 626.013 383.468 628.007 379.668 C 631.452 373.103 630.666 361.345 631.596 353.986 M 565.596 386.986 C 574.354 386.985 582.938 385.494 591.596 384.257 C 595.363 383.719 599.847 383.776 603.448 382.556 C 607.72 381.109 606.904 373.346 603.166 371.604 C 600.938 370.565 597.893 371.537 595.596 371.856 C 589.635 372.681 583.608 373.728 577.596 373.986 C 575.571 357.962 575.293 340.741 571.407 325.045 C 570.276 320.476 562.453 319.136 559.239 322.589 C 556.283 325.765 559.284 335.081 559.751 338.986 C 561.653 354.875 564.91 371.002 565.596 386.986 M 704.596 327.986 C 699.445 337.648 695.191 347.98 690.735 357.986 C 687.101 366.145 683.272 373.749 684.925 382.986 C 688.114 400.805 712.608 408.799 726.556 398.348 C 731.911 394.335 734.321 387.914 736.877 381.986 C 741.723 370.748 747.771 358.906 750.596 346.986 C 747.334 345.648 741.593 341.781 738.295 344.63 C 735.663 346.903 734.65 351.881 733.315 354.986 C 729.146 364.684 725.977 379.223 718.383 386.772 C 711.204 393.909 698.837 389.262 698.099 378.986 C 697.547 371.305 703.728 362.734 706.735 355.986 C 710.091 348.455 714.313 340.914 716.596 332.986 C 712.744 330.746 708.939 329.017 704.596 327.986 M 522.596 389.986 L 516.596 373.986 C 522.773 372.22 532.182 369.757 537.263 365.761 C 540.304 363.37 538.741 356.992 535.202 355.683 C 532.799 354.794 529.795 356.338 527.596 357.19 L 512.596 362.986 C 510.701 358.073 508.491 353.189 507.596 347.986 C 515.915 346.74 525.184 342.933 532.596 338.986 C 531.96 336.239 531.388 331.788 528.894 330.029 C 526.691 328.476 523.775 329.863 521.596 330.717 C 516.272 332.805 510.953 334.932 505.596 336.936 C 502.135 338.23 493.824 339.675 492.24 343.405 C 491.231 345.779 492.593 348.764 493.408 350.986 C 495.374 356.351 497.544 361.635 499.546 366.986 L 509.646 393.986 C 510.695 396.799 511.673 402.142 514.298 403.918 C 516.848 405.644 521.07 403.515 523.596 402.642 C 530.357 400.305 536.957 397.445 543.596 394.786 C 546.209 393.74 550.117 392.837 551.899 390.487 C 554.002 387.713 551.976 381.649 548.463 380.968 C 544.661 380.232 539.045 383.806 535.596 385.186 C 531.298 386.905 526.998 388.551 522.596 389.986 M 467.596 404.986 C 472.18 403.522 475.621 400.604 479.596 397.986 C 480.918 401.114 484.43 404.568 484.598 407.986 C 485.01 416.333 471.231 421.544 464.596 420.797 C 445.147 418.606 436.939 392.327 452.6 380.405 C 456.817 377.194 461.519 377 466.596 376.986 C 466.596 373.845 467.645 368.204 465.568 365.589 C 462.664 361.932 454.836 365.28 451.596 366.782 C 440.784 371.791 432.247 381.858 430.78 393.986 C 430.003 400.417 431.411 407.12 434.039 412.986 C 436.698 418.92 441.209 424.416 446.596 428.07 C 462.397 438.787 484.042 434.236 494.128 417.986 C 496.304 414.481 499.543 409.296 499.108 404.986 C 498.629 400.244 493.711 395.633 490.969 391.986 C 488.897 389.229 486.706 385.374 483.557 383.723 C 478.628 381.14 471.162 389.271 467.616 392.116 C 466.248 393.214 464.488 394.407 463.902 396.16 C 462.88 399.215 466.032 402.654 467.596 404.986 M 751.596 415.986 C 757.248 409.849 762.628 403.368 768.006 396.986 C 773.055 390.994 782.489 383.388 785.13 375.986 C 786.599 371.867 780.984 366.112 776.766 366.868 C 772.982 367.546 769.788 373.315 767.441 375.986 C 759.599 384.909 751.879 393.943 744.175 402.986 C 741.66 405.937 735.683 410.75 735.788 414.982 C 735.899 419.441 743.56 424.068 746.596 426.704 C 750.842 430.392 755.065 434.203 759.596 437.542 C 761.428 438.892 763.832 440.89 766.295 440.238 C 769.85 439.298 771.917 434.306 769.949 431.272 C 766.149 425.416 757.458 419.653 751.596 415.986 M 576.596 417.986 C 578.906 413.105 581.119 408.415 581.596 402.986 C 564.362 403.88 552.541 419.868 539.596 428.986 C 540.653 423.537 542.192 418.438 540.596 412.986 C 525.939 417.656 516.22 431.532 508.596 443.986 C 507.62 440.026 506.977 436.052 506.616 431.991 C 506.48 430.463 506.593 428.037 504.993 427.162 C 501.49 425.246 497.46 431.763 495.956 433.986 C 490.339 442.285 486.415 451.956 485.596 461.986 C 483.347 460.127 476.843 448.567 473.608 452.609 C 471.815 454.849 472.596 459.324 472.596 461.986 C 472.595 470.952 473.533 478.693 477.187 486.986 C 478.574 490.135 482.19 494.426 481.765 497.986 C 481.332 501.618 477.326 505.072 475.342 507.986 C 469.137 517.103 464.424 527.438 453.596 532.031 C 445.187 535.597 424.876 529.004 428.14 544.986 C 429.665 552.453 435.813 559.491 440.767 564.986 C 460.312 586.669 488.668 590.275 513.596 602.739 C 519.469 605.676 527.491 608.199 532.278 612.775 C 537.168 617.448 534.605 629.132 531.09 633.947 C 529.256 636.459 526.496 638.262 525.067 641.075 C 522.55 646.032 525.741 650.632 530.601 652.182 C 548.032 657.743 560.365 639.331 566.596 625.986 C 569.433 631.882 569.376 638.652 565.202 643.971 C 561.771 648.345 554.782 652.344 557.204 658.967 C 559.096 664.142 564.807 664.978 569.596 664.978 C 582.101 664.979 591.479 655.523 598.437 645.986 C 600.675 642.918 602.628 637.276 606.701 636.343 C 610.093 635.567 614.254 637.155 617.596 637.736 C 625.509 639.111 633.549 640.919 641.596 640.986 C 640.906 643.595 639.827 646.262 639.744 648.985 C 639.573 654.586 643.545 656.953 648.596 657.684 C 656.553 658.836 665.079 655.173 671.596 650.882 C 673.894 649.369 675.993 647.151 678.596 646.169 C 681.728 644.988 685.498 646.223 688.596 646.986 C 685.735 649.031 682.275 650.649 679.824 653.199 C 675.601 657.594 676.544 664.305 682.639 666.333 C 689.727 668.692 698.89 666.466 705.596 663.92 C 710.112 662.206 715.024 660.001 717.894 655.943 C 720.428 652.36 720.587 647.505 723.874 644.405 C 727.955 640.556 734.763 639.887 739.596 637.106 C 747.998 632.272 753.823 623.742 757.596 614.986 C 760.623 617.163 765.35 624.653 769.371 624.065 C 772.437 623.616 772.508 619.288 772.581 616.986 C 772.824 609.251 772.564 601.647 771.596 593.986 C 774.375 596.103 779.514 602.658 783.278 602.065 C 786.953 601.486 785.331 594.276 785.02 591.986 C 783.61 581.625 781.56 571.306 776.596 561.986 C 779.692 563.283 787.827 569.93 790.953 567.849 C 793.924 565.873 790.42 558.438 789.592 555.986 C 785.589 544.124 779.573 533.336 772.596 522.986 C 775.943 523.48 785.02 528.246 787.749 525.915 C 790.763 523.341 784.974 515.313 783.53 512.986 C 776.153 501.095 765.573 492.534 755.596 482.986 C 759.033 482.986 769.525 484.919 771.859 482.293 C 774.899 478.873 767.701 473.526 765.592 471.74 C 756.244 463.821 745.547 456.255 733.596 452.986 L 733.596 450.986 C 736.97 450.038 746.559 450.103 748.51 447.248 C 751.531 442.824 741.197 438.995 738.596 437.767 C 726.084 431.86 711.527 427.101 697.596 426.986 C 699.781 424.444 707.154 422.063 707.675 418.869 C 708.446 414.134 698.42 413.796 695.596 413.411 C 682.223 411.59 668.705 413.444 655.596 415.986 C 657.559 413.197 663.955 408.205 662.844 404.42 C 661.624 400.261 653.454 402.645 650.596 402.911 C 638.22 404.063 627.4 408.758 615.596 411.986 C 617.499 407.569 620.068 403.85 620.596 398.986 C 604.117 399.337 590.334 410.338 576.596 417.986 M 821.592 410.862 C 816.972 411.804 812.274 416.854 808.596 419.613 L 784.596 437.612 C 781.057 440.255 775.804 442.788 773.243 446.451 C 771.145 449.45 773.251 453.365 775.524 455.663 C 782.383 462.6 788.569 446.443 795.27 449.868 C 798.471 451.504 800.413 456.356 802.78 458.971 C 808.216 464.973 816.38 468.968 824.596 467.313 C 836.779 464.859 846.087 453.835 844.256 440.986 C 843.382 434.855 839.82 429.874 836.302 424.986 C 833.428 420.993 827.505 409.655 821.592 410.862 M 430.596 484.986 C 438.64 479.061 444.263 468.937 450.223 460.986 C 452.165 458.395 456.215 454.562 455.689 451.001 C 455.095 446.973 449.612 444.078 446.262 446.605 C 440.605 450.871 434.325 460.53 431.596 466.986 C 426.188 464.293 421.712 460.172 416.596 456.986 L 431.596 436.986 C 428.856 433.438 425.87 431.351 421.596 429.986 C 416.887 436.561 411.598 442.962 407.596 449.986 C 403.791 446.967 400.083 443.883 395.596 441.986 C 398.151 437.846 401.062 433.948 403.887 429.986 C 405.993 427.033 410.42 422.842 410.714 419.075 C 410.997 415.45 405.358 411.406 402.061 413.072 C 399.493 414.371 397.785 417.738 396.175 419.986 C 392.112 425.657 388.066 431.339 383.971 436.986 C 382.179 439.457 379.343 442.615 380.733 445.893 C 382.734 450.613 390.618 454.376 394.596 457.359 C 406.685 466.426 418.831 475.502 430.596 484.986 M 615.596 426.986 C 612.181 430.685 607.607 432.866 603.596 435.885 C 599.17 439.216 595.483 443.939 589.596 442.986 C 593.85 433.889 605.759 427.437 615.596 426.986 M 822.506 428.019 C 825.375 428.351 827.4 431.835 828.846 433.987 C 834.282 442.076 830.784 456.294 818.596 454.498 C 813.65 453.77 804.357 445.739 806.018 440.076 C 807.029 436.629 811.899 434.118 814.596 432.113 C 816.722 430.533 819.609 427.684 822.506 428.019 M 645.596 427.986 C 640.067 432.865 628.938 437.235 621.596 437.986 C 624.344 428.648 637.411 427.991 645.596 427.986 M 684.596 434.986 C 677.827 438.025 664.75 441.042 657.596 438.986 L 657.596 436.986 C 665.834 432.668 675.777 432.306 684.596 434.986 M 562.596 433.986 C 561.076 440.397 556.048 445.274 552.908 450.986 C 550.611 455.165 549.427 459.475 544.596 460.986 C 544.852 450.106 553.081 438.922 562.596 433.986 M 710.596 453.986 C 703.242 453.057 696.033 451.902 688.596 451.99 C 683.146 452.054 678.607 453.646 673.596 450.986 C 679.993 444.267 693.478 447.012 701.596 449.142 C 705.155 450.076 708.484 450.9 710.596 453.986 M 653.596 450.986 C 646.181 454.551 636.551 455.81 628.596 458.315 C 626.954 458.832 622.079 460.728 621.517 457.758 C 620.906 454.526 626.479 453.216 628.596 452.577 C 636.473 450.199 645.561 448.611 653.596 450.986 M 580.596 451.986 C 575.289 457.571 568.521 465.748 561.596 468.986 C 560.08 459.625 572.542 452.711 580.596 451.986 M 528.596 452.986 C 528.527 461.347 528.03 470.976 525.596 478.986 L 523.596 478.986 C 521.027 470.295 523.525 461.225 526.596 452.986 L 528.596 452.986 M 603.596 457.986 C 598.7 462.95 586.641 472.289 579.596 470.986 C 584.126 462.439 594.291 458.392 603.596 457.986 M 506.596 461.986 C 507.997 467.803 510.069 475.155 508.596 480.986 C 503.107 476.159 502.994 468.715 504.596 461.986 L 506.596 461.986 M 721.596 472.986 C 714.044 471.26 706.379 469.37 698.596 469.025 C 694.212 468.831 690.186 469.777 688.596 464.986 C 697.689 462.821 716.432 463.91 721.596 472.986 M 634.596 471.986 L 634.596 473.986 C 624.983 475.406 615.806 479.989 606.596 482.986 C 605.881 478.188 609.393 476.594 613.596 475.076 C 620.403 472.618 627.428 471.987 634.596 471.986 M 491.596 472.986 C 494.412 477.761 497.602 482.479 498.596 487.986 C 492.744 486.304 487.707 478.577 491.596 472.986 M 683.596 477.986 C 674.541 477.986 663.194 480.527 654.596 477.986 L 654.596 475.986 C 661.211 472.803 678.637 471.443 683.596 477.986 M 557.596 525.986 C 562.704 526.968 566.642 524.838 571.596 523.986 C 574.918 529.945 579.715 534.471 583.596 539.986 C 574.137 548.622 592.074 557.139 598.596 560.986 C 597.842 564.564 598.305 566.815 601.631 568.9 C 607.119 572.342 613.928 573.73 619.596 577.001 C 626.701 581.101 632.543 586.914 639.596 590.986 L 641.596 585.986 C 650.35 588.4 657.509 593.937 664.596 599.41 C 668.402 602.349 671.406 605.573 675.596 601.986 C 684.756 604.625 692.302 610.487 699.596 616.41 C 703.304 619.42 706.521 622.83 710.596 618.986 C 718.011 621.168 727.156 626.928 730.596 633.986 C 726.217 635 720.36 636.162 717.735 640.2 C 715.189 644.115 715.346 649.121 712.177 652.801 C 707.075 658.725 697.024 660.985 689.596 661.986 L 690.596 656.986 C 687.924 658.674 685.646 660.162 682.596 660.986 C 683.612 657.445 685.381 655.436 688.601 653.515 C 690.662 652.285 694.57 651.341 695.389 648.762 C 696.433 645.475 691.654 642.472 689.596 640.74 C 682.092 634.424 676.893 627.37 670.596 619.986 C 669.999 626.754 674.372 631.876 676.596 637.986 C 659.125 637.841 640.83 634.9 623.596 632.066 C 615.173 630.681 606.718 631.302 606.596 620.986 C 601.148 623.916 600.502 630.829 597.696 635.986 C 591.77 646.876 580.693 659.386 567.596 659.986 C 568.143 658.111 568.706 656.731 569.596 654.986 C 566.937 655.532 565.007 656.757 562.596 657.986 C 564.049 652 569.449 649.312 572.14 643.986 C 576.923 634.52 573.54 616.814 565.596 609.986 L 565.596 617.986 C 543.141 612.791 524.307 599.626 503.596 590.298 C 490.724 584.5 476.606 582.9 464.596 574.986 C 469.979 570.955 476.052 570.574 477.596 562.986 C 467.226 569.752 457.999 572.744 447.882 563.367 C 445.881 561.512 442.837 558.882 442.513 555.985 C 442.207 553.252 444.606 551.132 445.888 548.986 C 447.567 546.175 448.163 543.181 448.596 539.986 C 456.289 538.394 462.933 535.708 468.503 529.946 C 480.162 517.883 483.584 502.017 501.596 497.145 C 509.389 495.037 526.878 493.272 529.596 502.986 C 534.592 496.951 538.098 488.981 545.6 485.544 C 559.776 479.049 575.999 490.296 573.267 505.986 C 571.687 515.061 563.79 520.058 557.596 525.986 M 745.596 497.986 C 737.175 495.579 729.161 492.43 720.597 490.331 C 718.76 489.88 713.975 489.007 714.517 486.17 C 715.181 482.702 721.558 484.609 723.596 485.142 C 731.438 487.192 741.797 490.257 745.596 497.986 M 662.596 491.986 C 656.325 493.915 646.338 492.109 639.597 491.981 C 637.934 491.95 632.932 492.102 633.517 489.156 C 634.046 486.496 638.698 486.997 640.596 486.987 C 648.279 486.946 655.85 488.189 662.596 491.986 M 540.596 506.986 C 546.948 505.045 552.626 492.357 560.321 499.3 C 562.057 500.867 563.155 503.165 564.596 504.986 C 566.277 496.892 558.643 490.209 550.597 492.844 C 544.193 494.941 540.941 500.599 540.596 506.986 M 612.596 496.986 C 605.7 500.301 596.18 500.965 588.596 500.986 C 591.315 492.593 606.032 494.991 612.596 496.986 M 713.596 502.986 C 703.975 502.22 692.955 501.214 683.596 498.986 C 685.022 494.69 688.439 494.85 692.596 495.025 C 699.903 495.333 708.705 497.295 713.596 502.986 M 545.596 508.986 C 550.553 508.418 552.834 508.567 555.596 512.986 C 560.708 505.925 549.59 501.068 545.596 508.986 M 757.596 521.986 C 751.1 519.524 744.881 515.313 738.601 512.201 C 736.858 511.338 733.044 509.758 733.517 507.203 C 734.173 503.66 739.92 506.445 741.596 507.26 C 748.116 510.43 754.495 515.337 757.596 521.986 M 633.596 511.986 C 627.682 511.986 622.203 512.086 616.596 509.986 C 620.145 503.555 630.23 506.592 633.596 511.986 M 681.596 511.986 C 678.431 513.314 675.015 512.986 671.596 512.986 C 664.494 512.986 655.988 514.397 649.596 510.986 C 657.165 503.035 672.82 508.605 681.596 511.986 M 735.596 528.986 C 728.308 527.691 712.118 523.702 708.596 516.986 C 717.351 514.585 731.342 521.093 735.596 528.986 M 611.596 521.986 C 605.366 524.673 596.061 524.897 589.596 522.986 L 589.596 520.986 C 596.741 518.311 604.53 519.34 611.596 521.986 M 662.596 537.986 C 654.91 536.165 647.251 533.667 639.597 531.608 C 637.669 531.089 632.965 530.133 633.517 527.199 C 634.122 523.983 639.749 525.9 641.596 526.414 C 649.373 528.581 657.641 531.316 662.596 537.986 M 729.596 544.986 C 724.879 543.483 720.982 540.499 716.596 538.245 C 711.445 535.598 704.68 534.394 703.596 527.986 C 713.923 528.459 724.859 535.861 729.596 544.986 M 499.611 530.654 C 489.127 533.708 493.418 551.853 504.553 548.468 C 514.856 545.337 510.442 527.499 499.611 530.654 M 499.596 538.986 C 498.95 536.528 498.95 535.444 499.596 532.986 C 503.068 534.961 503.068 537.011 499.596 538.986 M 760.596 549.986 C 755.55 547.021 750.495 540.816 749.596 534.986 C 757.016 536.141 759.991 543.111 760.596 549.986 M 437.596 537.986 L 436.596 541.986 L 434.596 541.986 L 433.596 540.986 L 433.596 538.986 L 437.596 537.986 M 624.596 546.986 C 621.854 546.762 619.28 546.241 616.596 545.636 L 611.597 544.557 C 609.937 544.157 601.806 540.669 606.933 538.679 C 612.091 536.677 622.204 542.77 624.596 546.986 M 711.596 554.986 C 700.203 551.704 688.72 546.277 677.596 541.986 C 679.366 536.657 684.273 538.419 688.596 540.052 C 696.395 542.996 707.662 547.24 711.596 554.986 M 759.596 567.986 C 754.079 564.103 742.975 557.335 743.596 549.986 C 751.747 552.407 758.707 559.365 759.596 567.986 M 652.596 565.986 C 645.809 566.037 632.78 560.113 629.596 553.986 C 637.803 551.986 647.839 559.784 652.596 565.986 M 682.596 569.986 C 676.624 568.043 667.76 567.12 666.596 559.986 C 673.55 560.597 679.536 563.483 682.596 569.986 M 722.596 578.986 C 715.791 576.51 704.027 572.589 700.596 565.986 C 709.321 563.807 719.046 571.378 722.596 578.986 M 758.596 593.986 C 753.587 591.65 749.28 587.234 745.749 582.987 C 744.72 581.749 742.102 578.621 744.257 577.147 C 746.19 575.825 748.858 578.109 750.156 579.331 C 754.315 583.245 757.214 588.505 758.596 593.986 M 705.596 597.986 C 700.406 596.767 696.212 593.424 691.596 590.848 C 686.564 588.04 681.255 586.393 678.596 580.986 C 688.502 578.928 700.956 590.026 705.596 597.986 M 748.596 602.986 C 742.581 600.181 731.569 592.254 732.596 584.986 C 740.619 587.548 747.088 594.653 748.596 602.986 M 738.596 616.986 C 732.512 614.149 726.433 608.07 723.596 601.986 C 731.502 600.869 736.366 610.553 738.596 616.986 M 560.596 623.986 C 556.526 635.104 547.012 646.894 534.596 647.986 L 536.596 642.986 C 534.337 644.09 533.254 645.064 531.596 646.986 C 530.047 642.032 535.459 638.113 537.68 633.986 C 540.412 628.909 541.148 622.66 541.596 616.986 C 547.993 618.502 554.782 620.923 560.596 623.986 M 668.596 643.986 C 665.099 649.709 657.835 651.694 651.596 652.986 L 651.596 648.986 L 645.596 651.986 C 647.407 639.621 659.61 643.98 668.596 643.986 Z" id="object-0" transform="matrix(0.9999999999999999, 0, 0, 0.9999999999999999, 2.842170943040401e-14, 0)"/></svg>