<svg version="1.1" id="Layer_1" xmlns="http://www.w3.org/2000/svg" xmlns:xlink="http://www.w3.org/1999/xlink" x="0px" y="0px"
	 width="100%" viewBox="0 0 462 354" enable-background="new 0 0 462 354" xml:space="preserve">
<path fill="none" opacity="0" stroke="none"
	d="
M335.000000,355.000000
	C223.367386,355.000000 112.234772,355.000000 1.051077,355.000000
	C1.051077,237.070221 1.051077,119.140404 1.051077,1.105294
	C154.882568,1.105294 308.765228,1.105294 462.823944,1.105294
	C462.823944,118.999779 462.823944,236.999878 462.823944,355.000000
	C420.473785,355.000000 377.986908,355.000000 335.000000,355.000000
M59.543995,182.464188 
	C54.900288,182.841736 50.214916,182.950500 45.623009,183.662247 
	C39.344307,184.635452 36.912174,188.145386 38.488461,194.299957 
	C39.420944,197.940826 40.905731,201.646683 42.997082,204.746552 
	C49.969967,215.081924 58.501205,224.059616 69.649475,229.865524 
	C78.475830,234.462234 87.739807,238.237000 96.892029,242.185333 
	C110.645882,248.118835 124.567940,253.670700 138.234955,259.794403 
	C148.041229,264.188232 150.566696,270.301178 146.917084,280.384430 
	C145.663651,283.847443 143.247330,287.036530 140.830780,289.902618 
	C134.822205,297.028992 136.678665,303.124451 145.629547,305.280426 
	C151.120499,306.602997 156.718719,306.527405 160.858932,302.878815 
	C166.635010,297.788574 171.618622,291.772034 176.715881,285.954315 
	C178.357925,284.080200 179.288132,281.582367 180.798294,278.921844 
	C184.142197,286.695831 183.228714,292.563873 178.266113,298.077759 
	C176.707077,299.809998 174.954453,301.376892 173.480881,303.175507 
	C168.459091,309.305023 170.916992,316.284973 178.670105,317.808807 
	C185.907852,319.231354 193.108627,318.089020 198.565857,313.432098 
	C204.926773,308.004028 210.321030,301.393463 215.812210,295.018219 
	C218.300293,292.129547 219.895554,287.980377 224.525375,288.681152 
	C235.622940,290.360870 246.663651,292.416260 257.737946,294.321869 
	C254.412140,307.527100 258.713257,312.789825 272.097839,310.113831 
	C279.006714,308.732513 285.647034,304.954376 291.814026,301.265137 
	C296.353424,298.549561 300.333740,297.482422 305.804016,299.899872 
	C303.026154,301.881927 300.069946,303.139252 298.459259,305.368683 
	C296.678955,307.832886 294.998474,311.356354 295.407654,314.100464 
	C295.730438,316.265411 299.077087,318.301208 301.478882,319.720703 
	C303.063354,320.657074 305.371796,320.727875 307.324860,320.620087 
	C316.654388,320.105194 325.429321,317.525665 333.052216,312.071442 
	C335.338593,310.435486 337.475342,307.690491 338.262604,305.033417 
	C340.359375,297.957092 345.138458,294.280548 351.811707,292.426910 
	C358.629730,290.533081 364.295593,286.817261 368.553955,281.249390 
	C371.858887,276.928070 374.674622,272.232635 378.724487,266.185364 
	C380.395630,268.501007 381.614960,271.064301 383.601776,272.688965 
	C385.451996,274.201935 388.119171,274.715851 390.426697,275.669556 
	C391.260284,273.445038 392.719421,271.246429 392.812683,268.991272 
	C393.118317,261.600006 392.927460,254.188187 392.927460,246.435791 
	C394.475067,247.763855 395.909515,249.370010 397.676514,250.412506 
	C399.705841,251.609802 402.029785,252.307831 404.225739,253.222733 
	C404.841827,250.807129 406.341858,248.223618 405.920471,246.005066 
	C404.126678,236.561127 401.768616,227.224167 399.603271,217.851227 
	C399.335175,216.690811 398.987671,215.548737 398.361633,213.230286 
	C401.607025,215.028961 403.648224,216.534912 405.936951,217.310776 
	C407.784912,217.937195 410.300751,218.371002 411.807098,217.562088 
	C412.712982,217.075592 412.912598,213.787323 412.295502,212.198730 
	C408.929779,203.534683 405.403412,194.919891 401.538818,186.468048 
	C399.434418,181.865723 396.550476,177.619858 393.549622,172.397934 
	C395.924225,173.134781 397.421600,173.846100 398.981567,174.031708 
	C402.151428,174.408920 405.355103,174.502045 408.544861,174.712250 
	C407.761597,171.484543 407.649048,167.878113 406.077789,165.095322 
	C399.613159,153.645920 390.402985,144.451370 380.631927,135.815552 
	C379.207123,134.556274 377.438385,133.686203 375.828796,132.636047 
	C376.275146,132.210510 376.721497,131.784988 377.167877,131.359451 
	C380.775116,131.359451 384.402222,131.580688 387.980621,131.259537 
	C389.598663,131.114334 392.006866,130.224579 392.443207,129.065338 
	C392.907684,127.831360 391.577118,125.823349 390.808594,124.262459 
	C390.384827,123.401840 389.575348,122.683884 388.821472,122.040199 
	C378.780182,113.466553 368.452942,105.342712 355.721344,100.980743 
	C354.651306,100.614136 353.728027,99.819221 352.736542,99.223297 
	C356.690948,97.475342 360.448456,97.034172 364.069183,96.076118 
	C365.642029,95.659935 368.019104,94.254730 368.093292,93.166603 
	C368.199158,91.614044 366.654419,89.843178 365.553864,88.358971 
	C365.009064,87.624321 363.898438,87.288895 363.014618,86.829025 
	C350.658966,80.400169 337.697021,75.801872 323.846741,73.900444 
	C321.646271,73.598343 319.442139,73.322769 316.264709,72.907516 
	C318.120056,71.527695 319.119324,70.739891 320.164612,70.018730 
	C321.397675,69.168030 322.751312,68.474915 323.910309,67.537445 
	C326.927979,65.096542 326.674622,62.831547 323.167206,61.137432 
	C321.988434,60.568085 320.635803,60.078217 319.352051,60.050976 
	C308.726135,59.825516 298.095367,59.530182 287.471130,59.662220 
	C282.999695,59.717796 278.540405,60.750854 272.759644,61.513084 
	C274.797852,59.215168 276.159607,58.153854 276.878784,56.760811 
	C278.029663,54.531590 278.754272,52.082306 279.659088,49.726044 
	C277.084564,49.095242 274.383087,47.622711 271.958923,47.988472 
	C264.090210,49.175686 256.280823,50.858219 248.531387,52.698658 
	C243.119492,53.983952 237.843216,55.840351 231.766586,57.663620 
	C233.572968,52.970844 235.027573,49.191921 236.769592,44.666321 
	C219.239426,45.029209 206.659531,55.741322 192.154190,62.836815 
	C193.824905,57.661392 195.159897,53.525928 196.764801,48.554375 
	C177.753891,50.485554 167.488922,64.913956 153.992294,74.343231 
	C154.265869,68.979477 154.512329,64.147652 154.758774,59.315830 
	C154.080063,58.906765 153.401352,58.497696 152.722641,58.088627 
	C146.859329,62.572765 140.449860,66.512215 135.284042,71.691978 
	C129.961945,77.028450 125.851425,83.573257 120.901245,89.990662 
	C120.253448,85.591270 119.789612,81.472618 118.975670,77.424370 
	C118.679924,75.953461 117.819313,73.864090 116.724213,73.487244 
	C115.578102,73.092834 113.550499,74.087234 112.430679,75.069962 
	C110.838005,76.467636 109.371017,78.241409 108.462799,80.146477 
	C104.155319,89.181854 100.055847,98.316399 95.934212,107.302414 
	C94.942123,106.090691 93.470566,103.853569 91.556915,102.098488 
	C90.088043,100.751312 88.061874,100.011780 86.283546,99.002014 
	C85.518997,100.882904 84.127708,102.751740 84.091278,104.646637 
	C83.849060,117.243141 84.848999,129.614639 91.856529,140.704224 
	C93.862991,143.879486 94.068840,147.256577 91.749695,150.545944 
	C87.340981,156.799057 83.099709,163.173035 78.585800,169.348358 
	C73.978210,175.651871 68.537239,180.955353 59.543995,182.464188 
z"/>
<path fill="#0A0A0A" opacity="1.000000" stroke="none" 
	d="
M59.973969,182.449493 
	C68.537239,180.955353 73.978210,175.651871 78.585800,169.348358 
	C83.099709,163.173035 87.340981,156.799057 91.749695,150.545944 
	C94.068840,147.256577 93.862991,143.879486 91.856529,140.704224 
	C84.848999,129.614639 83.849060,117.243141 84.091278,104.646637 
	C84.127708,102.751740 85.518997,100.882904 86.283554,99.002014 
	C88.061874,100.011780 90.088043,100.751312 91.556915,102.098488 
	C93.470566,103.853569 94.942123,106.090691 95.934212,107.302414 
	C100.055847,98.316399 104.155319,89.181854 108.462799,80.146477 
	C109.371017,78.241409 110.838005,76.467636 112.430679,75.069962 
	C113.550499,74.087234 115.578102,73.092834 116.724213,73.487244 
	C117.819313,73.864090 118.679924,75.953461 118.975670,77.424370 
	C119.789612,81.472618 120.253448,85.591270 120.901245,89.990662 
	C125.851425,83.573257 129.961945,77.028450 135.284042,71.691978 
	C140.449860,66.512215 146.859329,62.572765 152.722641,58.088627 
	C153.401352,58.497696 154.080063,58.906765 154.758774,59.315830 
	C154.512329,64.147652 154.265869,68.979477 153.992294,74.343231 
	C167.488922,64.913956 177.753891,50.485554 196.764801,48.554375 
	C195.159897,53.525928 193.824905,57.661392 192.154190,62.836815 
	C206.659531,55.741322 219.239426,45.029209 236.769592,44.666321 
	C235.027573,49.191921 233.572968,52.970844 231.766586,57.663620 
	C237.843216,55.840351 243.119492,53.983952 248.531387,52.698658 
	C256.280823,50.858219 264.090210,49.175686 271.958923,47.988472 
	C274.383087,47.622711 277.084564,49.095242 279.659088,49.726044 
	C278.754272,52.082306 278.029663,54.531590 276.878784,56.760811 
	C276.159607,58.153854 274.797852,59.215168 272.759644,61.513084 
	C278.540405,60.750854 282.999695,59.717796 287.471130,59.662220 
	C298.095367,59.530182 308.726135,59.825516 319.352051,60.050976 
	C320.635803,60.078217 321.988434,60.568085 323.167206,61.137432 
	C326.674622,62.831547 326.927979,65.096542 323.910309,67.537445 
	C322.751312,68.474915 321.397675,69.168030 320.164612,70.018730 
	C319.119324,70.739891 318.120056,71.527695 316.264709,72.907516 
	C319.442139,73.322769 321.646271,73.598343 323.846741,73.900444 
	C337.697021,75.801872 350.658966,80.400169 363.014618,86.829025 
	C363.898438,87.288895 365.009064,87.624321 365.553864,88.358971 
	C366.654419,89.843178 368.199158,91.614044 368.093292,93.166603 
	C368.019104,94.254730 365.642029,95.659935 364.069183,96.076118 
	C360.448456,97.034172 356.690948,97.475342 352.736542,99.223297 
	C353.728027,99.819221 354.651306,100.614136 355.721344,100.980743 
	C368.452942,105.342712 378.780182,113.466553 388.821472,122.040199 
	C389.575348,122.683884 390.384827,123.401840 390.808594,124.262459 
	C391.577118,125.823349 392.907684,127.831360 392.443207,129.065338 
	C392.006866,130.224579 389.598663,131.114334 387.980621,131.259537 
	C384.402222,131.580688 380.775116,131.359451 377.167877,131.359451 
	C376.721497,131.784988 376.275146,132.210510 375.828796,132.636047 
	C377.438385,133.686203 379.207123,134.556274 380.631927,135.815552 
	C390.402985,144.451370 399.613159,153.645920 406.077789,165.095322 
	C407.649048,167.878113 407.761597,171.484543 408.544861,174.712250 
	C405.355103,174.502045 402.151428,174.408920 398.981567,174.031708 
	C397.421600,173.846100 395.924225,173.134781 393.549622,172.397934 
	C396.550476,177.619858 399.434418,181.865723 401.538818,186.468048 
	C405.403412,194.919891 408.929779,203.534683 412.295502,212.198730 
	C412.912598,213.787323 412.712982,217.075592 411.807098,217.562088 
	C410.300751,218.371002 407.784912,217.937195 405.936951,217.310776 
	C403.648224,216.534912 401.607025,215.028961 398.361633,213.230286 
	C398.987671,215.548737 399.335175,216.690811 399.603271,217.851227 
	C401.768616,227.224167 404.126678,236.561127 405.920471,246.005066 
	C406.341858,248.223618 404.841827,250.807129 404.225739,253.222733 
	C402.029785,252.307831 399.705841,251.609802 397.676514,250.412506 
	C395.909515,249.370010 394.475067,247.763855 392.927460,246.435791 
	C392.927460,254.188187 393.118317,261.600006 392.812683,268.991272 
	C392.719421,271.246429 391.260284,273.445038 390.426697,275.669556 
	C388.119171,274.715851 385.451996,274.201935 383.601776,272.688965 
	C381.614960,271.064301 380.395630,268.501007 378.724487,266.185364 
	C374.674622,272.232635 371.858887,276.928070 368.553955,281.249390 
	C364.295593,286.817261 358.629730,290.533081 351.811707,292.426910 
	C345.138458,294.280548 340.359375,297.957092 338.262604,305.033417 
	C337.475342,307.690491 335.338593,310.435486 333.052216,312.071442 
	C325.429321,317.525665 316.654388,320.105194 307.324860,320.620087 
	C305.371796,320.727875 303.063354,320.657074 301.478882,319.720703 
	C299.077087,318.301208 295.730438,316.265411 295.407654,314.100464 
	C294.998474,311.356354 296.678955,307.832886 298.459259,305.368683 
	C300.069946,303.139252 303.026154,301.881927 305.804016,299.899872 
	C300.333740,297.482422 296.353424,298.549561 291.814026,301.265137 
	C285.647034,304.954376 279.006714,308.732513 272.097839,310.113831 
	C258.713257,312.789825 254.412140,307.527100 257.737946,294.321869 
	C246.663651,292.416260 235.622940,290.360870 224.525375,288.681152 
	C219.895554,287.980377 218.300293,292.129547 215.812210,295.018219 
	C210.321030,301.393463 204.926773,308.004028 198.565857,313.432098 
	C193.108627,318.089020 185.907852,319.231354 178.670105,317.808807 
	C170.916992,316.284973 168.459091,309.305023 173.480881,303.175507 
	C174.954453,301.376892 176.707077,299.809998 178.266113,298.077759 
	C183.228714,292.563873 184.142197,286.695831 180.798294,278.921844 
	C179.288132,281.582367 178.357925,284.080200 176.715881,285.954315 
	C171.618622,291.772034 166.635010,297.788574 160.858932,302.878815 
	C156.718719,306.527405 151.120499,306.602997 145.629547,305.280426 
	C136.678665,303.124451 134.822205,297.028992 140.830780,289.902618 
	C143.247330,287.036530 145.663651,283.847443 146.917084,280.384430 
	C150.566696,270.301178 148.041229,264.188232 138.234955,259.794403 
	C124.567940,253.670700 110.645882,248.118835 96.892029,242.185333 
	C87.739807,238.237000 78.475830,234.462234 69.649475,229.865524 
	C58.501205,224.059616 49.969967,215.081924 42.997082,204.746552 
	C40.905731,201.646683 39.420944,197.940826 38.488461,194.299957 
	C36.912174,188.145386 39.344307,184.635452 45.623009,183.662247 
	C50.214916,182.950500 54.900288,182.841736 59.973969,182.449493 
M80.952385,228.630966 
	C86.218254,230.661575 91.507187,232.634674 96.745216,234.734726 
	C107.838852,239.182373 119.046371,243.383224 129.943878,248.272202 
	C140.556091,253.033173 150.730637,258.765167 161.311539,263.602295 
	C167.051071,266.226166 173.237045,267.873444 179.690262,270.124695 
	C179.855499,266.956299 179.954498,265.057892 180.097626,262.313232 
	C185.361298,266.942993 187.423965,272.391663 187.879486,278.081146 
	C188.333527,283.751953 188.593140,289.925629 186.807770,295.151031 
	C185.030502,300.352692 180.605865,304.649872 176.710739,310.251495 
	C179.518692,309.476471 181.153061,309.025360 183.024658,308.508759 
	C182.941727,310.139435 182.878677,311.378967 182.770432,313.507172 
	C186.423172,312.175262 189.698883,311.445374 192.504272,309.875183 
	C203.073761,303.959534 210.204742,294.987030 214.918137,283.910675 
	C216.481232,280.237427 218.548904,276.778900 220.385880,273.222198 
	C220.921387,273.222107 221.456909,273.222046 221.992416,273.221954 
	C222.350220,281.346985 227.970551,282.810974 234.030197,283.704407 
	C245.065445,285.331421 256.075775,287.167725 267.146790,288.498901 
	C275.765869,289.535187 284.461182,289.937317 293.729126,290.669189 
	C291.345673,284.362640 289.349762,279.081543 287.353851,273.800415 
	C287.804932,273.578674 288.256012,273.356934 288.707092,273.135162 
	C289.877594,274.450775 291.008606,275.804138 292.225403,277.075470 
	C297.855682,282.958221 303.279907,289.064178 309.220551,294.616608 
	C315.078125,300.091431 315.084412,301.958405 307.987305,305.582123 
	C303.816925,307.711517 301.922913,309.902771 301.489014,313.314880 
	C303.598938,312.522003 305.621613,311.761902 307.794678,310.945312 
	C307.949554,312.381073 308.067841,313.477631 308.184296,314.557343 
	C322.626343,314.020844 329.810791,308.785736 334.886780,296.326782 
	C336.077759,293.403473 339.007141,290.928375 341.659058,288.945679 
	C343.645966,287.460205 346.470947,287.095673 349.449707,286.046478 
	C344.713715,278.539307 338.139740,274.119354 330.291870,271.337799 
	C329.737427,271.141266 328.884338,271.190491 328.398590,271.492676 
	C324.979553,273.619843 322.519897,271.738525 319.851379,269.810242 
	C313.787689,265.428619 307.683441,261.088623 301.405273,257.025940 
	C299.080139,255.521332 295.634735,253.321213 293.713989,254.063049 
	C287.373169,256.512054 284.175629,252.015244 280.022186,249.347076 
	C273.105530,244.903824 266.151642,240.518600 258.969269,235.953766 
	C257.543488,238.621567 256.785004,240.040802 255.896896,241.702591 
	C254.969543,241.226791 254.186569,240.970444 253.578827,240.491653 
	C242.676575,231.902313 230.972733,224.750961 218.015305,219.591568 
	C216.083221,218.822250 215.095703,215.682800 213.669022,213.641342 
	C212.626587,212.149658 211.849838,210.323227 210.485367,209.233765 
	C206.477264,206.033447 201.960236,203.423248 198.218323,199.959839 
	C196.698288,198.552917 195.370239,194.742462 196.194092,193.403946 
	C198.849060,189.090561 196.305237,186.779312 193.985092,184.044632 
	C192.585434,182.394897 190.955704,180.824493 190.009216,178.928909 
	C187.644363,174.192657 184.493607,172.564545 179.337646,174.717484 
	C177.400925,175.526199 174.964890,175.139130 171.410767,175.393555 
	C173.733658,173.304733 174.988541,172.268387 176.136871,171.125015 
	C178.728546,168.544525 181.589874,166.153275 183.767822,163.254074 
	C190.414886,154.405838 189.146240,143.116104 181.038071,136.407562 
	C172.859726,129.640961 160.625702,130.094681 153.393860,137.815155 
	C149.692184,141.766968 146.617523,146.306122 142.985931,150.927933 
	C139.515442,145.525208 134.467453,143.966553 128.712479,143.809387 
	C113.215034,143.386185 100.734772,148.803513 92.334206,162.323639 
	C90.842300,164.724747 89.101410,166.969910 87.569794,169.347809 
	C81.338280,179.022552 73.629623,186.709610 61.829208,189.239059 
	C60.747257,189.470978 59.678284,190.935745 59.091347,192.078659 
	C57.512360,195.153336 55.877613,198.267334 54.887829,201.553329 
	C54.198330,203.842407 53.474808,207.198959 54.597282,208.773544 
	C60.085995,216.473038 69.228134,223.168381 81.406639,217.568192 
	C83.750755,216.490280 86.034958,215.282089 88.942635,213.838104 
	C87.193192,220.887054 80.733009,221.884018 76.430931,225.728180 
	C77.852036,226.641586 79.081566,227.431839 80.952385,228.630966 
M172.292450,281.598999 
	C173.036438,279.825500 173.780426,278.052002 174.796143,275.630737 
	C168.093842,273.161194 161.939392,270.893555 154.706848,268.228638 
	C156.243225,280.444366 148.527557,288.782654 144.122452,298.272736 
	C144.540512,298.443146 144.958557,298.613525 145.376602,298.783936 
	C146.429138,298.095306 147.481689,297.406708 149.014664,296.403748 
	C148.894806,298.127563 148.812637,299.309204 148.724136,300.581970 
	C159.043533,298.474304 165.041412,293.689911 172.292450,281.598999 
M295.483917,191.372177 
	C306.141998,196.717590 317.160339,201.085495 329.708527,204.672165 
	C328.680206,203.015411 328.423218,202.403641 327.998993,201.947281 
	C320.685669,194.079865 310.848511,190.991302 301.003052,188.140106 
	C299.593872,187.732025 297.496643,189.699905 295.483917,191.372177 
M333.329285,133.542511 
	C334.738892,135.007797 335.888733,137.162842 337.606537,137.809723 
	C342.865753,139.790222 348.348633,141.173431 353.733582,142.824646 
	C357.079102,143.850479 360.404755,144.941055 363.739319,146.002594 
	C363.086212,143.472595 362.096191,141.429871 360.501801,140.690750 
	C354.245789,137.790573 347.885284,135.053162 341.376068,132.796127 
	C339.141754,132.021393 336.358643,132.829483 333.329285,133.542511 
M264.683990,96.842072 
	C256.748871,98.134567 248.779358,99.259987 240.911346,100.878746 
	C239.548950,101.159042 238.616318,103.528381 237.485184,104.932800 
	C239.226990,105.348152 241.112518,106.413559 242.685562,106.065720 
	C249.301895,104.602676 255.839905,102.771545 262.373688,100.956726 
	C264.609528,100.335709 266.749084,99.368088 268.932617,98.558823 
	C268.857544,98.190262 268.782471,97.821701 268.707397,97.453140 
	C267.630920,97.264748 266.554474,97.076355 264.683990,96.842072 
M312.196533,116.661354 
	C321.125549,117.646957 330.054565,118.632561 338.916382,119.610741 
	C334.346191,112.374382 315.985474,108.530502 306.238129,113.476219 
	C308.239502,114.667084 309.802155,115.596886 312.196533,116.661354 
M301.101685,99.265480 
	C309.957581,99.265480 318.813507,99.265480 326.846985,99.265480 
	C322.097107,93.173622 299.115967,91.438225 290.792023,98.606949 
	C294.621155,98.895332 297.427094,99.106651 301.101685,99.265480 
M334.830292,165.694519 
	C332.510681,165.694519 330.191071,165.694519 327.871490,165.694519 
	C327.775726,166.161087 327.679932,166.627670 327.584167,167.094238 
	C334.754303,174.067551 344.072968,176.073700 354.806427,178.337616 
	C349.546265,170.674133 343.037537,167.579407 334.830292,165.694519 
M263.571777,176.974274 
	C260.534729,176.122314 257.537933,174.956879 254.442505,174.559479 
	C253.035400,174.378845 251.433121,175.718521 249.919373,176.368576 
	C250.867783,177.560349 251.593292,179.442047 252.800705,179.832123 
	C260.751129,182.400635 268.805359,184.647812 277.999451,187.343964 
	C274.806183,180.671509 269.270325,179.333054 263.571777,176.974274 
M325.031830,146.319473 
	C319.196594,145.294678 313.389923,143.956924 307.510101,143.421051 
	C305.549316,143.242355 303.401428,145.116531 301.339050,146.052246 
	C301.533600,146.718979 301.728149,147.385696 301.922699,148.052429 
	C311.499023,149.245117 321.075378,150.437820 330.651703,151.630524 
	C330.827240,151.192947 331.002777,150.755386 331.178314,150.317810 
	C329.359283,149.089859 327.540253,147.861893 325.031830,146.319473 
M289.331238,161.907364 
	C292.259796,161.686615 295.188354,161.465851 298.116943,161.245087 
	C287.782898,156.903992 277.571198,151.996124 266.083954,159.568527 
	C273.882507,163.176178 281.204773,161.834488 289.331238,161.907364 
M167.273331,87.766586 
	C162.269913,93.429382 158.788116,99.738426 159.132782,107.790787 
	C166.482773,100.306366 171.030731,91.036041 176.556229,82.408424 
	C176.142883,82.036636 175.729538,81.664848 175.316193,81.293060 
	C172.802322,83.282059 170.288452,85.271049 167.273331,87.766586 
M315.810486,245.629654 
	C317.974365,246.670639 320.138275,247.711639 322.929413,249.054382 
	C317.928467,238.359589 304.669434,230.217026 296.029816,232.656235 
	C298.422089,234.752045 300.288910,236.860901 302.579681,238.290359 
	C306.646088,240.827805 310.969727,242.953140 315.810486,245.629654 
M328.264801,178.330200 
	C326.383514,178.000107 324.502197,177.670013 322.620911,177.339920 
	C322.413361,177.819229 322.205780,178.298538 321.998230,178.777847 
	C328.282501,187.313507 338.981476,188.688080 347.330231,193.874954 
	C343.247437,186.167297 338.359070,182.267273 328.264801,178.330200 
M273.687195,295.914429 
	C266.408569,296.163116 263.937164,297.963043 262.813660,304.191559 
	C264.563080,303.572449 266.136932,303.015472 267.443512,302.553070 
	C268.255310,303.687683 268.787903,305.283569 269.647614,305.485291 
	C273.242828,306.328796 282.712402,300.952423 285.071777,296.778046 
	C281.459625,296.480072 278.029907,296.197144 273.687195,295.914429 
M296.979584,126.040222 
	C298.110504,125.879799 299.241394,125.719383 300.883820,125.486412 
	C293.064453,119.239006 274.715515,119.512413 271.277802,126.062096 
	C279.783417,126.062096 287.960785,126.062096 296.979584,126.040222 
M213.904282,86.451477 
	C219.303894,82.495209 224.703491,78.538940 230.639481,74.189667 
	C220.415833,73.412834 207.344635,81.789131 205.364792,90.565819 
	C208.374954,89.184578 210.855377,88.046402 213.904282,86.451477 
M276.557495,138.679581 
	C268.910828,137.448456 261.279877,136.092697 253.600113,135.124023 
	C252.481339,134.982910 251.129333,136.690720 249.885254,137.542999 
	C250.994812,138.345779 252.057983,139.763565 253.221497,139.851349 
	C260.681885,140.414185 268.162445,140.732742 275.640778,141.015839 
	C277.322906,141.079514 277.330902,140.868347 276.557495,138.679581 
M376.299194,169.699966 
	C372.330566,161.551575 365.218811,157.338715 357.048157,154.603577 
	C355.933228,154.230362 354.420227,155.046417 353.091522,155.311844 
	C353.754822,156.629486 354.070740,158.559860 355.138000,159.164963 
	C361.872559,162.983185 368.773804,166.507401 376.299194,169.699966 
M258.122742,206.328949 
	C254.398880,205.155273 250.675003,203.981598 246.951141,202.807938 
	C249.625900,210.393890 260.862793,216.352585 269.713715,215.568939 
	C265.532990,212.187042 262.144440,209.445969 258.122742,206.328949 
M213.602768,110.084381 
	C215.095016,108.742294 216.587265,107.400215 218.738632,105.465332 
	C207.387650,105.619926 196.985397,111.719582 195.329498,118.679543 
	C202.450806,118.445663 207.665039,114.300911 213.602768,110.084381 
M141.563690,100.560555 
	C140.654434,101.120453 139.090729,101.542213 138.938828,102.261955 
	C137.645386,108.390198 136.410431,114.547012 135.609314,120.753517 
	C135.351776,122.748726 136.441101,124.917793 136.914246,127.007317 
	C137.421127,126.972305 137.927994,126.937294 138.434860,126.902290 
	C141.538635,118.704376 141.733902,110.036972 141.563690,100.560555 
M238.578323,125.010605 
	C242.683411,123.761993 246.788513,122.513390 251.898758,120.959053 
	C244.105789,118.766388 229.342209,121.077255 224.652573,124.986496 
	C223.248352,126.157013 222.523148,128.142075 221.486862,129.753967 
	C221.840057,130.067154 222.193253,130.380341 222.546463,130.693527 
	C227.636322,128.868057 232.726181,127.042572 238.578323,125.010605 
M249.120041,81.688065 
	C253.080933,79.689095 257.041809,77.690125 261.002686,75.691154 
	C249.662323,73.247025 239.877640,77.385300 238.205307,84.721306 
	C241.795303,83.735809 245.089020,82.831650 249.120041,81.688065 
M320.196899,218.327789 
	C325.627991,224.304276 332.899170,226.676422 341.401520,229.608307 
	C336.834167,221.775482 331.373077,217.347015 323.711273,216.055603 
	C322.535706,215.857452 321.112030,217.131287 320.196899,218.327789 
M284.714081,86.040558 
	C290.085907,84.910583 295.457764,83.780602 300.829590,82.650620 
	C290.988892,78.092621 277.823029,79.961029 274.223663,86.094505 
	C277.793823,86.094505 280.829102,86.094505 284.714081,86.040558 
M175.628616,114.276970 
	C176.083389,114.784409 176.809082,115.802742 176.954010,115.725899 
	C183.732803,112.131180 188.604706,106.559784 193.784088,100.253960 
	C185.068253,100.258446 178.000793,105.756912 175.628616,114.276970 
M353.221222,242.030380 
	C356.672516,247.484756 361.565125,251.168671 367.527618,254.104095 
	C366.264221,245.145355 360.362213,238.605942 351.533203,236.508270 
	C352.032288,238.318466 352.452118,239.841217 353.221222,242.030380 
M210.507309,143.744965 
	C208.158371,145.091141 205.809418,146.437317 203.460480,147.783493 
	C203.773438,148.558685 204.086380,149.333878 204.399323,150.109070 
	C211.884460,149.005524 219.369583,147.901978 226.854706,146.798416 
	C226.823151,145.910995 226.791595,145.023575 226.760040,144.136169 
	C221.614639,143.942581 216.469223,143.749008 210.507309,143.744965 
M363.243195,202.253403 
	C365.786407,209.951065 372.583649,213.181839 378.869293,217.998093 
	C378.099426,210.076096 371.115479,201.778778 364.616150,200.368896 
	C364.222626,200.283539 363.630249,201.114899 363.243195,202.253403 
M370.607056,230.888306 
	C368.988708,229.806213 367.462189,228.482437 365.688690,227.808868 
	C365.234863,227.636520 363.072784,230.049072 363.261932,230.380737 
	C366.658630,236.336838 371.094940,241.279846 377.256409,244.304260 
	C377.715515,243.946213 378.174652,243.588165 378.633759,243.230103 
	C376.119354,239.290817 373.604950,235.351517 370.607056,230.888306 
M224.370926,169.886688 
	C217.637451,168.376511 210.850952,166.174179 203.160431,171.457413 
	C211.325928,174.321594 218.113571,173.672272 224.902802,171.848755 
	C225.110565,171.792969 225.048920,170.734070 224.370926,169.886688 
M236.685532,196.082718 
	C237.601730,196.154709 238.517929,196.226685 239.717880,196.320969 
	C234.212814,188.858643 225.203049,185.897491 220.692917,190.117371 
	C224.626907,195.161453 230.712173,194.547729 236.685532,196.082718 
M348.951935,262.560608 
	C351.487518,264.478729 354.023102,266.396851 357.351532,268.914734 
	C354.796997,258.567383 349.551575,253.365356 342.297211,253.956665 
	C344.524078,256.894196 346.481537,259.476349 348.951935,262.560608 
M121.832535,125.021057 
	C121.339355,119.608574 121.175240,114.110832 118.198830,108.537567 
	C114.760361,116.307106 115.835548,123.087013 120.945869,128.095993 
	C121.254501,127.259300 121.517738,126.545670 121.832535,125.021057 
M285.774933,210.289230 
	C282.307892,211.616714 284.875885,213.645493 285.825134,214.201675 
	C289.951233,216.619293 294.326813,218.611130 298.611755,220.757675 
	C298.850159,220.277084 299.088531,219.796478 299.326935,219.315872 
	C296.892761,213.798935 291.907227,211.799728 285.774933,210.289230 
M375.065857,195.508560 
	C376.575897,196.725540 378.085938,197.942535 380.147736,199.604187 
	C379.188171,189.862122 375.387787,185.204773 368.608093,185.565598 
	C370.744507,188.927902 372.660950,191.943939 375.065857,195.508560 
M243.407089,155.797165 
	C239.275589,154.333313 235.492447,154.163406 232.130386,159.274841 
	C238.179672,159.964325 243.491898,160.569809 248.804138,161.175293 
	C248.950806,160.649139 249.097473,160.122986 249.244141,159.596832 
	C247.555817,158.397629 245.867493,157.198410 243.407089,155.797165 
M108.832962,129.526718 
	C107.285706,126.718811 105.738441,123.910896 103.889091,120.554764 
	C100.771912,127.687737 104.066376,133.946243 110.797760,134.923843 
	C110.199661,133.257492 109.651085,131.729095 108.832962,129.526718 
M398.124542,213.575623 
	C398.328522,213.659744 398.532532,213.743866 398.736511,213.827972 
	C398.682709,213.620255 398.628876,213.412552 398.124542,213.575623 
z"/>
<path fill="#FCFCFC" opacity="1.000000" stroke="none" 
	d="
M80.631744,228.426529 
	C79.081566,227.431839 77.852036,226.641586 76.430931,225.728180 
	C80.733009,221.884018 87.193192,220.887054 88.942635,213.838104 
	C86.034958,215.282089 83.750755,216.490280 81.406639,217.568192 
	C69.228134,223.168381 60.085995,216.473038 54.597282,208.773544 
	C53.474808,207.198959 54.198330,203.842407 54.887829,201.553329 
	C55.877613,198.267334 57.512360,195.153336 59.091347,192.078659 
	C59.678284,190.935745 60.747257,189.470978 61.829208,189.239059 
	C73.629623,186.709610 81.338280,179.022552 87.569794,169.347809 
	C89.101410,166.969910 90.842300,164.724747 92.334206,162.323639 
	C100.734772,148.803513 113.215034,143.386185 128.712479,143.809387 
	C134.467453,143.966553 139.515442,145.525208 142.985931,150.927933 
	C146.617523,146.306122 149.692184,141.766968 153.393860,137.815155 
	C160.625702,130.094681 172.859726,129.640961 181.038071,136.407562 
	C189.146240,143.116104 190.414886,154.405838 183.767822,163.254074 
	C181.589874,166.153275 178.728546,168.544525 176.136871,171.125015 
	C174.988541,172.268387 173.733658,173.304733 171.410767,175.393555 
	C174.964890,175.139130 177.400925,175.526199 179.337646,174.717484 
	C184.493607,172.564545 187.644363,174.192657 190.009216,178.928909 
	C190.955704,180.824493 192.585434,182.394897 193.985092,184.044632 
	C196.305237,186.779312 198.849060,189.090561 196.194092,193.403946 
	C195.370239,194.742462 196.698288,198.552917 198.218323,199.959839 
	C201.960236,203.423248 206.477264,206.033447 210.485367,209.233765 
	C211.849838,210.323227 212.626587,212.149658 213.669022,213.641342 
	C215.095703,215.682800 216.083221,218.822250 218.015305,219.591568 
	C230.972733,224.750961 242.676575,231.902313 253.578827,240.491653 
	C254.186569,240.970444 254.969543,241.226791 255.896896,241.702591 
	C256.785004,240.040802 257.543488,238.621567 258.969269,235.953766 
	C266.151642,240.518600 273.105530,244.903824 280.022186,249.347076 
	C284.175629,252.015244 287.373169,256.512054 293.713989,254.063049 
	C295.634735,253.321213 299.080139,255.521332 301.405273,257.025940 
	C307.683441,261.088623 313.787689,265.428619 319.851379,269.810242 
	C322.519897,271.738525 324.979553,273.619843 328.398590,271.492676 
	C328.884338,271.190491 329.737427,271.141266 330.291870,271.337799 
	C338.139740,274.119354 344.713715,278.539307 349.449707,286.046478 
	C346.470947,287.095673 343.645966,287.460205 341.659058,288.945679 
	C339.007141,290.928375 336.077759,293.403473 334.886780,296.326782 
	C329.810791,308.785736 322.626343,314.020844 308.184296,314.557343 
	C308.067841,313.477631 307.949554,312.381073 307.794678,310.945312 
	C305.621613,311.761902 303.598938,312.522003 301.489014,313.314880 
	C301.922913,309.902771 303.816925,307.711517 307.987305,305.582123 
	C315.084412,301.958405 315.078125,300.091431 309.220551,294.616608 
	C303.279907,289.064178 297.855682,282.958221 292.225403,277.075470 
	C291.008606,275.804138 289.877594,274.450775 288.707092,273.135162 
	C288.256012,273.356934 287.804932,273.578674 287.353851,273.800415 
	C289.349762,279.081543 291.345673,284.362640 293.729126,290.669189 
	C284.461182,289.937317 275.765869,289.535187 267.146790,288.498901 
	C256.075775,287.167725 245.065445,285.331421 234.030197,283.704407 
	C227.970551,282.810974 222.350220,281.346985 221.992416,273.221954 
	C221.456909,273.222046 220.921387,273.222107 220.385880,273.222198 
	C218.548904,276.778900 216.481232,280.237427 214.918137,283.910675 
	C210.204742,294.987030 203.073761,303.959534 192.504272,309.875183 
	C189.698883,311.445374 186.423172,312.175262 182.770432,313.507172 
	C182.878677,311.378967 182.941727,310.139435 183.024658,308.508759 
	C181.153061,309.025360 179.518692,309.476471 176.710739,310.251495 
	C180.605865,304.649872 185.030502,300.352692 186.807770,295.151031 
	C188.593140,289.925629 188.333527,283.751953 187.879486,278.081146 
	C187.423965,272.391663 185.361298,266.942993 180.097626,262.313232 
	C179.954498,265.057892 179.855499,266.956299 179.690262,270.124695 
	C173.237045,267.873444 167.051071,266.226166 161.311539,263.602295 
	C150.730637,258.765167 140.556091,253.033173 129.943878,248.272202 
	C119.046371,243.383224 107.838852,239.182373 96.745216,234.734726 
	C91.507187,232.634674 86.218254,230.661575 80.631744,228.426529 
M112.218079,179.782288 
	C106.010582,182.572220 104.041061,188.023911 107.097702,193.955627 
	C109.347954,198.322479 114.328224,199.904266 118.476196,197.569565 
	C123.377640,194.810776 124.900810,188.139191 120.924461,183.408417 
	C119.208755,181.367203 115.665718,180.861938 112.218079,179.782288 
M178.110870,146.674210 
	C174.435806,141.184067 170.170547,139.344620 164.673630,140.879333 
	C158.569794,142.583481 154.611816,148.124039 154.569229,156.095306 
	C157.312469,153.793579 159.546432,151.943527 161.753937,150.062439 
	C168.896423,143.976120 171.236450,144.162659 177.222473,151.256683 
	C177.551529,151.646652 178.192505,151.773407 179.300766,152.330597 
	C178.937546,150.240051 178.687775,148.802490 178.110870,146.674210 
M170.154053,155.550125 
	C165.511917,151.953461 162.532196,152.483307 160.542160,156.814011 
	C163.599396,158.030258 166.682465,159.256760 170.530823,160.787720 
	C170.530823,159.436829 170.530823,157.828934 170.154053,155.550125 
z"/>
<path fill="#F6F6F6" opacity="1.000000" stroke="none" 
	d="
M172.112289,281.931274 
	C165.041412,293.689911 159.043533,298.474304 148.724136,300.581970 
	C148.812637,299.309204 148.894806,298.127563 149.014664,296.403748 
	C147.481689,297.406708 146.429138,298.095306 145.376602,298.783936 
	C144.958557,298.613525 144.540512,298.443146 144.122452,298.272736 
	C148.527557,288.782654 156.243225,280.444366 154.706848,268.228638 
	C161.939392,270.893555 168.093842,273.161194 174.796143,275.630737 
	C173.780426,278.052002 173.036438,279.825500 172.112289,281.931274 
z"/>
<path fill="#EDEDED" opacity="1.000000" stroke="none" 
	d="
M295.600891,190.970184 
	C297.496643,189.699905 299.593872,187.732025 301.003052,188.140106 
	C310.848511,190.991302 320.685669,194.079865 327.998993,201.947281 
	C328.423218,202.403641 328.680206,203.015411 329.708527,204.672165 
	C317.160339,201.085495 306.141998,196.717590 295.600891,190.970184 
z"/>
<path fill="#E5E5E5" opacity="1.000000" stroke="none" 
	d="
M333.577759,133.228485 
	C336.358643,132.829483 339.141754,132.021393 341.376068,132.796127 
	C347.885284,135.053162 354.245789,137.790573 360.501801,140.690750 
	C362.096191,141.429871 363.086212,143.472595 363.739319,146.002594 
	C360.404755,144.941055 357.079102,143.850479 353.733582,142.824646 
	C348.348633,141.173431 342.865753,139.790222 337.606537,137.809723 
	C335.888733,137.162842 334.738892,135.007797 333.577759,133.228485 
z"/>
<path fill="#E6E6E6" opacity="1.000000" stroke="none" 
	d="
M265.080994,96.865021 
	C266.554474,97.076355 267.630920,97.264748 268.707397,97.453140 
	C268.782471,97.821701 268.857544,98.190262 268.932617,98.558823 
	C266.749084,99.368088 264.609528,100.335709 262.373688,100.956726 
	C255.839905,102.771545 249.301895,104.602676 242.685562,106.065720 
	C241.112518,106.413559 239.226990,105.348152 237.485184,104.932800 
	C238.616318,103.528381 239.548950,101.159042 240.911346,100.878746 
	C248.779358,99.259987 256.748871,98.134567 265.080994,96.865021 
z"/>
<path fill="#E2E2E2" opacity="1.000000" stroke="none" 
	d="
M311.780640,116.594017 
	C309.802155,115.596886 308.239502,114.667084 306.238129,113.476219 
	C315.985474,108.530502 334.346191,112.374382 338.916382,119.610741 
	C330.054565,118.632561 321.125549,117.646957 311.780640,116.594017 
z"/>
<path fill="#EAEAEA" opacity="1.000000" stroke="none" 
	d="
M300.667358,99.291725 
	C297.427094,99.106651 294.621155,98.895332 290.792023,98.606949 
	C299.115967,91.438225 322.097107,93.173622 326.846985,99.265480 
	C318.813507,99.265480 309.957581,99.265480 300.667358,99.291725 
z"/>
<path fill="#E5E5E5" opacity="1.000000" stroke="none" 
	d="
M335.232971,165.780518 
	C343.037537,167.579407 349.546265,170.674133 354.806427,178.337616 
	C344.072968,176.073700 334.754303,174.067551 327.584167,167.094238 
	C327.679932,166.627670 327.775726,166.161087 327.871490,165.694519 
	C330.191071,165.694519 332.510681,165.694519 335.232971,165.780518 
z"/>
<path fill="#E2E2E2" opacity="1.000000" stroke="none" 
	d="
M263.938324,177.100204 
	C269.270325,179.333054 274.806183,180.671509 277.999451,187.343964 
	C268.805359,184.647812 260.751129,182.400635 252.800705,179.832123 
	C251.593292,179.442047 250.867783,177.560349 249.919373,176.368576 
	C251.433121,175.718521 253.035400,174.378845 254.442505,174.559479 
	C257.537933,174.956879 260.534729,176.122314 263.938324,177.100204 
z"/>
<path fill="#E3E3E3" opacity="1.000000" stroke="none" 
	d="
M325.376526,146.476700 
	C327.540253,147.861893 329.359283,149.089859 331.178314,150.317810 
	C331.002777,150.755386 330.827240,151.192947 330.651703,151.630524 
	C321.075378,150.437820 311.499023,149.245117 301.922699,148.052429 
	C301.728149,147.385696 301.533600,146.718979 301.339050,146.052246 
	C303.401428,145.116531 305.549316,143.242355 307.510101,143.421051 
	C313.389923,143.956924 319.196594,145.294678 325.376526,146.476700 
z"/>
<path fill="#F0F0F0" opacity="1.000000" stroke="none" 
	d="
M288.853973,161.918396 
	C281.204773,161.834488 273.882507,163.176178 266.083954,159.568527 
	C277.571198,151.996124 287.782898,156.903992 298.116943,161.245087 
	C295.188354,161.465851 292.259796,161.686615 288.853973,161.918396 
z"/>
<path fill="#E6E6E6" opacity="1.000000" stroke="none" 
	d="
M167.523956,87.513313 
	C170.288452,85.271049 172.802322,83.282059 175.316193,81.293060 
	C175.729538,81.664848 176.142883,82.036636 176.556229,82.408424 
	C171.030731,91.036041 166.482773,100.306366 159.132782,107.790787 
	C158.788116,99.738426 162.269913,93.429382 167.523956,87.513313 
z"/>
<path fill="#E6E6E6" opacity="1.000000" stroke="none" 
	d="
M315.498108,245.440277 
	C310.969727,242.953140 306.646088,240.827805 302.579681,238.290359 
	C300.288910,236.860901 298.422089,234.752045 296.029816,232.656235 
	C304.669434,230.217026 317.928467,238.359589 322.929413,249.054382 
	C320.138275,247.711639 317.974365,246.670639 315.498108,245.440277 
z"/>
<path fill="#E6E6E6" opacity="1.000000" stroke="none" 
	d="
M328.630341,178.429718 
	C338.359070,182.267273 343.247437,186.167297 347.330231,193.874954 
	C338.981476,188.688080 328.282501,187.313507 321.998230,178.777847 
	C322.205780,178.298538 322.413361,177.819229 322.620911,177.339920 
	C324.502197,177.670013 326.383514,178.000107 328.630341,178.429718 
z"/>
<path fill="#EEEEEE" opacity="1.000000" stroke="none" 
	d="
M274.143707,295.914307 
	C278.029907,296.197144 281.459625,296.480072 285.071777,296.778046 
	C282.712402,300.952423 273.242828,306.328796 269.647614,305.485291 
	C268.787903,305.283569 268.255310,303.687683 267.443512,302.553070 
	C266.136932,303.015472 264.563080,303.572449 262.813660,304.191559 
	C263.937164,297.963043 266.408569,296.163116 274.143707,295.914307 
z"/>
<path fill="#EDEDED" opacity="1.000000" stroke="none" 
	d="
M296.558899,126.051163 
	C287.960785,126.062096 279.783417,126.062096 271.277802,126.062096 
	C274.715515,119.512413 293.064453,119.239006 300.883820,125.486412 
	C299.241394,125.719383 298.110504,125.879799 296.558899,126.051163 
z"/>
<path fill="#E3E3E3" opacity="1.000000" stroke="none" 
	d="
M213.620056,86.679855 
	C210.855377,88.046402 208.374954,89.184578 205.364792,90.565819 
	C207.344635,81.789131 220.415833,73.412834 230.639481,74.189667 
	C224.703491,78.538940 219.303894,82.495209 213.620056,86.679855 
z"/>
<path fill="#DEDEDE" opacity="1.000000" stroke="none" 
	d="
M276.881592,138.830353 
	C277.330902,140.868347 277.322906,141.079514 275.640778,141.015839 
	C268.162445,140.732742 260.681885,140.414185 253.221497,139.851349 
	C252.057983,139.763565 250.994812,138.345779 249.885254,137.542999 
	C251.129333,136.690720 252.481339,134.982910 253.600113,135.124023 
	C261.279877,136.092697 268.910828,137.448456 276.881592,138.830353 
z"/>
<path fill="#EDEDED" opacity="1.000000" stroke="none" 
	d="
M375.959595,169.914337 
	C368.773804,166.507401 361.872559,162.983185 355.138000,159.164963 
	C354.070740,158.559860 353.754822,156.629486 353.091522,155.311829 
	C354.420227,155.046417 355.933228,154.230362 357.048157,154.603577 
	C365.218811,157.338715 372.330566,161.551575 375.959595,169.914337 
z"/>
<path fill="#E3E3E3" opacity="1.000000" stroke="none" 
	d="
M258.439331,206.516937 
	C262.144440,209.445969 265.532990,212.187042 269.713715,215.568939 
	C260.862793,216.352585 249.625900,210.393890 246.951141,202.807938 
	C250.675003,203.981598 254.398880,205.155273 258.439331,206.516937 
z"/>
<path fill="#E0E0E0" opacity="1.000000" stroke="none" 
	d="
M213.324677,110.306648 
	C207.665039,114.300911 202.450806,118.445663 195.329498,118.679543 
	C196.985397,111.719582 207.387650,105.619926 218.738632,105.465332 
	C216.587265,107.400215 215.095016,108.742294 213.324677,110.306648 
z"/>
<path fill="#DADADA" opacity="1.000000" stroke="none" 
	d="
M141.691528,100.956200 
	C141.733902,110.036972 141.538635,118.704376 138.434860,126.902290 
	C137.927994,126.937294 137.421127,126.972305 136.914246,127.007317 
	C136.441101,124.917793 135.351776,122.748726 135.609314,120.753517 
	C136.410431,114.547012 137.645386,108.390198 138.938828,102.261955 
	C139.090729,101.542213 140.654434,101.120453 141.691528,100.956200 
z"/>
<path fill="#EDEDED" opacity="1.000000" stroke="none" 
	d="
M238.197174,125.113846 
	C232.726181,127.042572 227.636322,128.868057 222.546463,130.693527 
	C222.193253,130.380341 221.840057,130.067154 221.486862,129.753967 
	C222.523148,128.142075 223.248352,126.157013 224.652573,124.986496 
	C229.342209,121.077255 244.105789,118.766388 251.898758,120.959053 
	C246.788513,122.513390 242.683411,123.761993 238.197174,125.113846 
z"/>
<path fill="#E2E2E2" opacity="1.000000" stroke="none" 
	d="
M248.751373,81.807777 
	C245.089020,82.831650 241.795303,83.735809 238.205307,84.721306 
	C239.877640,77.385300 249.662323,73.247025 261.002686,75.691154 
	C257.041809,77.690125 253.080933,79.689095 248.751373,81.807777 
z"/>
<path fill="#E8E8E8" opacity="1.000000" stroke="none" 
	d="
M320.000000,218.026062 
	C321.112030,217.131287 322.535706,215.857452 323.711273,216.055603 
	C331.373077,217.347015 336.834167,221.775482 341.401520,229.608307 
	C332.899170,226.676422 325.627991,224.304276 320.000000,218.026062 
z"/>
<path fill="#EAEAEA" opacity="1.000000" stroke="none" 
	d="
M284.289215,86.067535 
	C280.829102,86.094505 277.793823,86.094505 274.223663,86.094505 
	C277.823029,79.961029 290.988892,78.092621 300.829590,82.650620 
	C295.457764,83.780602 290.085907,84.910583 284.289215,86.067535 
z"/>
<path fill="#E8E8E8" opacity="1.000000" stroke="none" 
	d="
M175.629791,113.924042 
	C178.000793,105.756912 185.068253,100.258446 193.784088,100.253960 
	C188.604706,106.559784 183.732803,112.131180 176.954010,115.725899 
	C176.809082,115.802742 176.083389,114.784409 175.629791,113.924042 
z"/>
<path fill="#E6E6E6" opacity="1.000000" stroke="none" 
	d="
M353.046570,241.697174 
	C352.452118,239.841217 352.032288,238.318466 351.533203,236.508270 
	C360.362213,238.605942 366.264221,245.145355 367.527618,254.104095 
	C361.565125,251.168671 356.672516,247.484756 353.046570,241.697174 
z"/>
<path fill="#DADADA" opacity="1.000000" stroke="none" 
	d="
M210.915558,143.650192 
	C216.469223,143.749008 221.614639,143.942581 226.760040,144.136169 
	C226.791595,145.023575 226.823151,145.910995 226.854706,146.798416 
	C219.369583,147.901978 211.884460,149.005524 204.399323,150.109070 
	C204.086380,149.333878 203.773438,148.558685 203.460480,147.783493 
	C205.809418,146.437317 208.158371,145.091141 210.915558,143.650192 
z"/>
<path fill="#E5E5E5" opacity="1.000000" stroke="none" 
	d="
M363.186798,201.886566 
	C363.630249,201.114899 364.222626,200.283539 364.616150,200.368896 
	C371.115479,201.778778 378.099426,210.076096 378.869293,217.998093 
	C372.583649,213.181839 365.786407,209.951065 363.186798,201.886566 
z"/>
<path fill="#EAEAEA" opacity="1.000000" stroke="none" 
	d="
M370.848816,231.150269 
	C373.604950,235.351517 376.119354,239.290817 378.633759,243.230103 
	C378.174652,243.588165 377.715515,243.946213 377.256409,244.304260 
	C371.094940,241.279846 366.658630,236.336838 363.261932,230.380737 
	C363.072784,230.049072 365.234863,227.636520 365.688690,227.808868 
	C367.462189,228.482437 368.988708,229.806213 370.848816,231.150269 
z"/>
<path fill="#E0E0E0" opacity="1.000000" stroke="none" 
	d="
M224.741898,170.014771 
	C225.048920,170.734070 225.110565,171.792969 224.902802,171.848755 
	C218.113571,173.672272 211.325928,174.321594 203.160431,171.457413 
	C210.850952,166.174179 217.637451,168.376511 224.741898,170.014771 
z"/>
<path fill="#EDEDED" opacity="1.000000" stroke="none" 
	d="
M236.320007,196.042297 
	C230.712173,194.547729 224.626907,195.161453 220.692917,190.117371 
	C225.203049,185.897491 234.212814,188.858643 239.717880,196.320969 
	C238.517929,196.226685 237.601730,196.154709 236.320007,196.042297 
z"/>
<path fill="#DEDEDE" opacity="1.000000" stroke="none" 
	d="
M348.695465,262.309540 
	C346.481537,259.476349 344.524078,256.894196 342.297211,253.956665 
	C349.551575,253.365356 354.796997,258.567383 357.351532,268.914734 
	C354.023102,266.396851 351.487518,264.478729 348.695465,262.309540 
z"/>
<path fill="#E2E2E2" opacity="1.000000" stroke="none" 
	d="
M121.806763,125.426544 
	C121.517738,126.545670 121.254501,127.259300 120.945869,128.095993 
	C115.835548,123.087013 114.760361,116.307106 118.198830,108.537567 
	C121.175240,114.110832 121.339355,119.608574 121.806763,125.426544 
z"/>
<path fill="#DADADA" opacity="1.000000" stroke="none" 
	d="
M286.139587,210.332703 
	C291.907227,211.799728 296.892761,213.798935 299.326935,219.315872 
	C299.088531,219.796478 298.850159,220.277084 298.611755,220.757675 
	C294.326813,218.611130 289.951233,216.619293 285.825134,214.201675 
	C284.875885,213.645493 282.307892,211.616714 286.139587,210.332703 
z"/>
<path fill="#E3E3E3" opacity="1.000000" stroke="none" 
	d="
M374.821594,195.234283 
	C372.660950,191.943939 370.744507,188.927902 368.608093,185.565598 
	C375.387787,185.204773 379.188171,189.862122 380.147736,199.604187 
	C378.085938,197.942535 376.575897,196.725540 374.821594,195.234283 
z"/>
<path fill="#E6E6E6" opacity="1.000000" stroke="none" 
	d="
M243.793121,155.898193 
	C245.867493,157.198410 247.555817,158.397629 249.244141,159.596832 
	C249.097473,160.122986 248.950806,160.649139 248.804138,161.175293 
	C243.491898,160.569809 238.179672,159.964325 232.130386,159.274841 
	C235.492447,154.163406 239.275589,154.333313 243.793121,155.898193 
z"/>
<path fill="#D5D5D5" opacity="1.000000" stroke="none" 
	d="
M108.967735,129.863708 
	C109.651085,131.729095 110.199661,133.257492 110.797760,134.923843 
	C104.066376,133.946243 100.771912,127.687737 103.889091,120.554764 
	C105.738441,123.910896 107.285706,126.718811 108.967735,129.863708 
z"/>
<path fill="#FEFEFE" opacity="1.000000" stroke="none" 
	d="
M398.349792,213.390228 
	C398.628876,213.412552 398.682709,213.620255 398.736511,213.827972 
	C398.532532,213.743866 398.328522,213.659744 398.349792,213.390228 
z"/>
<path fill="#131313" opacity="1.000000" stroke="none" 
	d="
M112.585434,179.720612 
	C115.665718,180.861938 119.208755,181.367203 120.924461,183.408417 
	C124.900810,188.139191 123.377640,194.810776 118.476196,197.569565 
	C114.328224,199.904266 109.347954,198.322479 107.097702,193.955627 
	C104.041061,188.023911 106.010582,182.572220 112.585434,179.720612 
z"/>
<path fill="#222222" opacity="1.000000" stroke="none" 
	d="
M178.274429,147.019562 
	C178.687775,148.802490 178.937546,150.240051 179.300766,152.330597 
	C178.192505,151.773407 177.551529,151.646652 177.222473,151.256683 
	C171.236450,144.162659 168.896423,143.976120 161.753937,150.062439 
	C159.546432,151.943527 157.312469,153.793579 154.569229,156.095306 
	C154.611816,148.124039 158.569794,142.583481 164.673630,140.879333 
	C170.170547,139.344620 174.435806,141.184067 178.274429,147.019562 
z"/>
<path fill="#2D2D2D" opacity="1.000000" stroke="none" 
	d="
M170.342438,155.885590 
	C170.530823,157.828934 170.530823,159.436829 170.530823,160.787720 
	C166.682465,159.256760 163.599396,158.030258 160.542160,156.814011 
	C162.532196,152.483307 165.511917,151.953461 170.342438,155.885590 
z"/>
</svg>